<?xml version="1.0" encoding="UTF-8"?>
<svg width="512pt" height="512pt" version="1.1" viewBox="0 0 512 512" xmlns="http://www.w3.org/2000/svg">
 <g fill="#ff001b">
  <path d="m456.71 364.82 11.977-8.0508c1.4453-1.0312 2.2734-2.4805 2.4766-4.1289 0.20703-1.6523-0.41016-3.3047-1.6484-4.543-21.062-20.445-52.656-25.812-80.945-15.902 8.4648-11.148 10.734-26.02 5.3672-39.027-2.0664-5.1602-4.543-10.941-7.0195-17.137h4.3359 2.2695c1.8594 0 3.7188-1.0352 4.75-2.4805 0.62109-1.0312 6.8164-10.738 6.8164-29.941s-5.9883-28.906-6.8164-29.941c-1.0312-1.6523-2.8906-2.4766-4.75-2.4766-5.7812 0-22.508 3.3047-31.594 7.0195-4.7461-10.941-8.2578-18.379-8.2578-18.582-0.20703-0.41406-0.41406-0.62109-0.62109-1.0352l-16.93-23.125c-3.7188-5.1641-9.707-8.0547-15.902-8.0547h-19.824c-5.5742 0-10.324 4.543-10.324 10.324 0 3.9258 2.8906 13.629 10.324 13.629h8.6758l8.6719 13.215 28.91 90.652c3.0938 9.7031 0.61719 20.648-6.4023 28.082l-59.676 62.98c-1.0352 1.2383-2.6875 1.8594-4.3359 1.8594h-30.355c-2.0664 0-3.9258-1.0312-4.957-2.6836l-23.129-34.484c39.234-45.844 39.441-48.32 39.441-50.797v-14.457c0-2.0625-0.41406-4.1289-1.2383-5.9883h17.344c3.0977 0 5.7852-2.4766 5.7852-5.7812v-239.74c0-3.0977-2.4805-5.7812-5.7852-5.7812h-239.12c-3.0977 0-5.7812 2.4766-5.7812 5.7812v239.12c0 3.0977 2.4766 5.7852 5.7812 5.7852h52.035c-1.0312 2.4766-1.4453 5.1602-1.4453 8.0508l-1.0312 31.801c-27.672 4.543-55.133 42.742-55.133 97.879 0 3.0977 2.4766 5.7812 5.7812 5.7812h26.637c2.4766 34.07 30.77 60.914 65.457 60.914 34.691 0 62.98-26.844 65.461-60.914h110.68c1.6523 0 3.0977-0.62109 4.1289-1.8594l27.879-30.148c-3.9258 15.281-3.3047 31.387 2.6836 46.461 0.61719 1.6523 2.0625 2.8906 3.5078 3.3047 0.62109 0.20703 1.0352 0.20703 1.6523 0.20703 1.0352 0 2.2734-0.41406 3.0977-1.0312l8.4688-5.7852c7.2266 28.703 33.039 49.559 63.598 49.559 36.344 0 65.664-29.527 65.664-65.664 0.20703-20.855-9.9102-40.473-26.637-52.863zm-66.695-142.27c1.4453 3.5117 3.5078 10.531 3.5078 20.855 0 10.738-2.2695 17.758-3.7148 21.27h-7.8477c-5.3672-12.391-10.945-25.191-15.695-36.344 5.7852-2.2695 17.348-4.9531 23.75-5.7812zm-350.01-182.54h227.76v227.76h-227.76zm199.89 239.12c3.3047 0 5.9883 2.6836 5.9883 5.9883v13.008c-3.0977 4.75-18.996 23.953-34.691 42.535-15.488-20.234-32.625-22.301-50.18-22.301h-65.871l0.82812-31.18c0-2.8906 1.2383-8.2578 5.7812-8.2578h138.14zm-113.57 193.07c-28.293 0-51.418-21.891-53.898-49.559h21.891c2.2695 15.691 15.691 27.668 32.008 27.668 16.312 0 29.734-12.184 32.004-27.668h21.891c-2.4805 27.668-25.605 49.559-53.895 49.559zm-20.652-49.559h41.094c-2.2734 9.293-10.531 16.312-20.648 16.312-10.121 0-18.172-7.0195-20.445-16.312zm194.52-11.359h-260.18c1.8594-46.871 26.844-81.355 49.145-81.355h71.656c17.344 0 31.59 1.6523 45.219 23.332l25.605 38.203c3.3047 4.7461 8.6719 7.6406 14.457 7.6406h30.352c4.75 0 9.293-2.0664 12.598-5.3711l59.676-62.98c9.9141-10.531 13.422-25.605 8.8789-39.234l-29.32-91.477c-0.20703-0.41016-0.41406-1.0312-0.62109-1.4453l-9.0859-13.836c-1.6523-3.0938-4.9531-5.1602-8.4648-5.1602h-7.8477c-0.20703-0.41406-0.41406-0.82422-0.41406-1.2383h18.586c2.6836 0 5.1641 1.2383 6.8164 3.5078l16.516 22.508c2.6875 6.1953 27.465 61.949 40.062 92.922 4.1289 10.121 1.8555 21.891-5.5781 29.945zm45.426 14.871c-7.4336-27.258 4.3359-57.82 29.734-74.961 12.598-8.4648 26.844-12.594 40.887-12.594 14.453 0 28.496 4.3359 39.855 13.215zm72.066-29.531c11.77 0 21.27 9.5 21.27 21.27s-9.5 21.27-21.27 21.27c-11.77 0-21.27-9.5-21.27-21.27s9.707-21.27 21.27-21.27zm0 75.578c-26.637 0-48.938-19.203-53.273-45.016l21.266-14.25c-0.20312 1.6523-0.41016 3.3047-0.41016 4.957 0 17.965 14.66 32.625 32.625 32.625s32.625-14.66 32.625-32.625c0-15.281-10.738-28.289-24.984-31.594l21.27-14.453c15.691 9.9102 25.605 27.258 25.605 46.047-0.41406 29.941-24.781 54.309-54.723 54.309z"/>
  <path d="m153.58 344.38h-54.512c-3.0977 0-5.7812 2.4766-5.7812 5.7812 0 3.0977 2.4766 5.7812 5.7812 5.7812h54.512c3.0977 0 5.7812-2.4766 5.7812-5.7812 0-3.3047-2.4766-5.7812-5.7812-5.7812z"/>
  <path d="m153.58 363.58h-54.512c-3.0977 0-5.7812 2.4805-5.7812 5.7812 0 3.3047 2.4766 5.7812 5.7812 5.7812h54.512c3.0977 0 5.7812-2.4766 5.7812-5.7812 0-3.3008-2.4766-5.7812-5.7812-5.7812z"/>
  <path d="m153.58 382.58h-54.512c-3.0977 0-5.7812 2.4766-5.7812 5.7812 0 3.3008 2.4766 5.7812 5.7812 5.7812h54.512c3.0977 0 5.7812-2.4805 5.7812-5.7812 0-3.3047-2.4766-5.7812-5.7812-5.7812z"/>
  <path d="m153.79 58.387c-52.656 0-95.398 42.742-95.398 95.398s42.742 95.402 95.398 95.402 95.402-42.746 95.402-95.402c0-52.449-42.746-95.398-95.402-95.398zm5.7812 31.801c30.77 2.6836 55.34 27.254 58.027 58.023h-58.027zm-5.7812 69.379h17.348c-0.41406 1.0352-0.62109 2.2734-0.62109 3.5117 0 6.1953 4.957 11.148 11.152 11.148 6.1914 0 11.148-4.9531 11.148-11.148 0-1.2383-0.41016-2.4766-0.61719-3.5117h25.602c-2.8906 32.629-30.352 58.438-63.805 58.438-35.309 0-64.012-28.699-64.012-64.012v-1.0312c1.8594 3.0977 5.3672 5.3672 9.293 5.3672 6.1914 0 11.148-4.957 11.148-11.148 0-6.1953-4.957-11.152-11.148-11.152-2.8906 0-5.5781 1.2383-7.4336 3.0977 6.1914-26.43 28.906-46.461 56.578-48.938v15.691c-1.4453-0.61719-2.8906-1.0312-4.75-1.0312-6.1953 0-11.152 4.957-11.152 11.148 0 6.1953 4.957 11.152 11.152 11.152 1.6523 0 3.3047-0.41406 4.75-1.0312v28.082c-0.20703 2.8906 2.2695 5.3672 5.3672 5.3672zm0 78.262c-46.254 0-84.043-37.789-84.043-84.043 0-44.395 34.691-80.738 78.262-83.836v8.6719c-39.027 2.8906-69.793 35.52-69.793 75.164 0 41.508 33.863 75.371 75.367 75.371 39.648 0 72.273-30.77 75.164-69.797h8.6719c-2.8906 43.984-39.23 78.469-83.629 78.469zm71.035-128.85c0.82422 1.2383 1.6523 2.6836 2.4766 4.1289 0.62109 1.0352 1.0312 1.8594 1.4453 2.8906 0.62109 1.4453 1.4453 2.6875 2.0664 4.1328 0.41406 1.0312 0.82422 2.0625 1.2383 3.0977 0.62109 1.4453 1.0312 2.8906 1.6523 4.1289 0.41406 1.0312 0.62109 2.2695 1.0312 3.3047 0.41406 1.4453 0.82812 2.8906 1.2383 4.3359 0.20703 1.0312 0.41406 2.2695 0.62109 3.3008 0.20703 1.4492 0.41406 3.0977 0.62109 4.543 0.20312 1.2422 0.20312 2.2734 0.41016 3.5117v1.6523h-8.6719c-2.6836-36.961-32.418-66.695-69.383-69.383v-8.6719h1.6523c1.2383 0 2.2734 0.20703 3.5117 0.41406 1.4453 0.20703 3.0977 0.41406 4.543 0.61719 1.2383 0.20703 2.2695 0.41406 3.5117 0.62109 1.4453 0.41406 2.8906 0.62109 4.3359 1.2383 1.0312 0.41406 2.2695 0.62109 3.3008 1.0352 1.4453 0.41016 2.8945 1.0312 4.3359 1.6484 1.0352 0.41406 2.0664 0.82812 3.0977 1.2383 1.4492 0.62109 2.6875 1.2422 4.1328 2.0664 1.0312 0.41406 1.8555 1.0312 2.8906 1.4453 1.4453 0.82812 2.6836 1.6523 4.1289 2.4805 0.82813 0.61719 1.6523 1.0312 2.4766 1.6523 1.4453 1.0312 2.8906 2.0625 4.1328 3.0938 0.61719 0.62109 1.4453 1.0352 2.0625 1.6523 3.9258 3.3047 7.6406 7.0234 10.945 10.945 0.61719 0.62109 1.0312 1.4453 1.6523 2.0664 1.0312 1.4453 2.0625 2.6836 3.0977 4.1289 0.20703 1.0312 0.82422 1.8594 1.4453 2.6836z"/>
  <path d="m129.01 205.2c6.1953 0 11.148-4.957 11.148-11.152 0-6.1953-4.9531-11.148-11.148-11.148-6.1953 0-11.152 4.9531-11.152 11.148 0.20703 6.1953 5.1641 11.152 11.152 11.152z"/>
  <path d="m181.46 115.79c-6.1953 0-11.152 4.9531-11.152 11.148 0 6.1953 4.957 11.152 11.152 11.152 6.1953 0 11.148-4.957 11.148-11.152 0-6.1953-4.9531-11.148-11.148-11.148z"/>
  <path d="m177.32 210.36c6.1953 0 11.152-4.9531 11.152-11.148 0-6.1953-4.957-11.152-11.152-11.152-6.1914 0-11.148 4.957-11.148 11.152 0 6.1953 4.957 11.148 11.148 11.148z"/>
 </g>
</svg>
