<?xml version="1.0" encoding="UTF-8"?>
<svg width="512pt" height="512pt" version="1.1" viewBox="0 0 512 512" xmlns="http://www.w3.org/2000/svg">
 <g fill="#ff001b" fill-rule="evenodd">
  <path d="m198.53 302.93c-9.0117 0-17.172 3.6562-23.082 9.5625-5.9102 5.9023-9.5703 14.07-9.5703 23.086s3.6602 17.172 9.5703 23.086c5.9023 5.9102 14.07 9.5625 23.082 9.5625 9.0156 0 17.176-3.6562 23.09-9.5625 5.9141-5.9102 9.5625-14.07 9.5625-23.086s-3.6562-17.176-9.5625-23.086c-5.9062-5.9062-14.07-9.5625-23.09-9.5625zm0 46.621c-7.6914 0-13.973-6.2812-13.973-13.973 0-7.6914 6.2812-13.973 13.973-13.973 7.6992 0 13.973 6.2812 13.973 13.973 0 7.6914-6.2695 13.973-13.973 13.973z"/>
  <path d="m235.34 233.84c0 4.9023-3.9766 8.8789-8.8789 8.8789-4.9023 0-8.8789-3.9766-8.8789-8.8789s3.9766-8.8789 8.8789-8.8789c4.9023 0 8.8789 3.9766 8.8789 8.8789"/>
  <path d="m486.51 259.34c0-5.625-1.9805-10.465-5.9336-14.469l-54.758-55.465c-13.285-13.449-29.551-20.254-48.465-20.254h-3.5117v-25.379l-235.37-0.003906v45.672h-56.773c-3.2812 0-5.9375 2.6562-5.9375 5.9375s2.6641 5.9375 5.9375 5.9375h56.77v126.83h22.191c1.4961-7.6797 5.2617-14.547 10.582-19.867 6.9844-6.9844 16.629-11.301 27.285-11.301 10.66 0 20.305 4.3164 27.289 11.301 5.3203 5.3203 9.0938 12.188 10.59 19.867h144.95c1.4961-7.6797 5.2617-14.547 10.582-19.867 6.9805-6.9844 16.625-11.301 27.285-11.301 10.66 0 20.305 4.3164 27.285 11.301 5.3203 5.3203 9.0977 12.188 10.59 19.867h9.6211c10.895 0 19.789-8.8945 19.789-19.801zm-227.23-22.773c-0.33203-1.3672-1.0039-2.668-2.0117-3.793-3.2773-3.6523-8.8867-3.9492-12.535-0.67578-2.7227 2.4492-3.5859 6.1953-2.4766 9.457l-35.719 10.453 16.754-40.449c0.22656 0.31641 0.47266 0.62891 0.73828 0.93359 3.6523 4.0664 9.9141 4.4023 13.973 0.75391 4.0664-3.6445 4.4023-9.9062 0.75391-13.973-2.3672-2.6367-5.8281-3.7031-9.0742-3.1367l3.5781-8.6406c7.7461 6.5625 14.98 13.582 21.699 21.062 6.7266 7.4922 12.934 15.438 18.605 23.828zm31.781-4.0469c-3.6289 3.2578-9.8359 3.3984-12.512-0.67578-12.227-18.566-26.941-34.902-44.051-49.086-3.7461-3.1094-2.9531-9.2578 0.67578-12.512 3.6289-3.2617 8.7656-2.4375 12.512 0.67578 17.109 14.184 31.633 30.695 44.051 49.082 2.7305 4.043 2.9531 9.2656-0.67578 12.516zm83.609 3.0625v-47.922l14.957 0.011719c7.9258 0.011719 14.727 2.8672 20.285 8.5039l38.836 39.41z"/>
  <path d="m419.23 302.93c-9.0156 0-17.172 3.6562-23.086 9.5625-5.9102 5.9023-9.5625 14.07-9.5625 23.086s3.6562 17.172 9.5625 23.086c5.9102 5.9141 14.07 9.5625 23.086 9.5625s17.176-3.6562 23.086-9.5625c5.9102-5.9102 9.5625-14.07 9.5625-23.086s-3.6562-17.176-9.5625-23.086c-5.9062-5.9062-14.066-9.5625-23.086-9.5625zm0.35156 46.621c-7.6914 0-13.969-6.2812-13.969-13.973 0-7.6914 6.2773-13.973 13.969-13.973 7.6953 0 13.973 6.2812 13.973 13.973-0.003906 7.6914-6.2773 13.973-13.973 13.973z"/>
  <path d="m96.027 235.89c0-3.2812-2.6641-5.9375-5.9375-5.9375l-58.668-0.003906c-3.2852 0-5.9375 2.6641-5.9375 5.9375 0 3.2773 2.6562 5.9375 5.9375 5.9375h58.664c3.2773 0.003906 5.9414-2.6562 5.9414-5.9336z"/>
  <path d="m116.98 275.7h-72.637c-3.2852 0-5.9375 2.6641-5.9375 5.9375 0 3.2773 2.6562 5.9375 5.9375 5.9375h72.637c3.2812 0 5.9375-2.6641 5.9375-5.9375 0-3.2773-2.6602-5.9375-5.9375-5.9375z"/>
 </g>
</svg>
