<?xml version="1.0" encoding="UTF-8"?>
<svg width="512pt" height="512pt" version="1.1" viewBox="0 0 512 512" xmlns="http://www.w3.org/2000/svg">
 <g fill="#ff001b">
  <path d="m120.5 340.7c-3.3281-5.3789-9.0977-8.5898-15.414-8.5898-3.0078 0-5.9766 0.72266-8.8398 2.1445-3.0742 1.5352-5.6016 4.0625-7.1367 7.1367-0.83984 1.6875-1.4219 3.418-1.7812 5.1602-0.62109 3.1055-0.46484 6.2188 0.46875 9.1562 0.44922 1.4062 1.0664 2.7617 1.8633 4.0586 3.3281 5.3789 9.0977 8.5938 15.414 8.5938 3.0078 0 5.9766-0.72656 8.8398-2.1484 3.0742-1.5312 5.6055-4.0625 7.1367-7.1328 0.54688-1.1094 0.98828-2.2422 1.332-3.3711 0.91406-3.0625 1.0547-6.1758 0.4375-9.1562-0.42188-2.0391-1.1953-4.0039-2.3359-5.8438zm-7.6406 14.289c-0.125 0.25-0.27344 0.48438-0.43359 0.71094-0.64844 0.97266-1.5391 1.7891-2.5898 2.3047-1.582 0.78906-3.1875 1.1914-4.7617 1.1914-2.8125 0-5.4023-1.3008-7.0898-3.4961-0.19141-0.24219-0.375-0.49219-0.54297-0.75781-0.92188-1.4922-2.1289-4.4727-0.61328-8.3984 0.13281-0.35156 0.28125-0.70703 0.46484-1.0742 0.64844-1.3008 1.7148-2.375 3.0117-3.0156 1.582-0.78906 3.1914-1.1875 4.7617-1.1875 3.1328 0 5.9844 1.5898 7.6328 4.2539 0.17578 0.28125 0.36719 0.63281 0.54297 1.0234 0.83203 1.8281 1.4297 4.7773-0.39844 8.4453z"/>
  <path d="m282.77 340.7c-3.332-5.3789-9.0977-8.5898-15.418-8.5898-3.0039 0-5.9766 0.72266-8.8398 2.1445-3.0703 1.5352-5.6016 4.0625-7.1328 7.1367-0.83984 1.6875-1.4219 3.418-1.7812 5.1602-0.62109 3.1055-0.46484 6.2188 0.46875 9.1562 0.44922 1.4062 1.0625 2.7617 1.8633 4.0586 3.3281 5.3789 9.0977 8.5938 15.414 8.5938 3.0078 0 5.9766-0.72656 8.8398-2.1484 3.0742-1.5312 5.6016-4.0625 7.1328-7.1328 0.55078-1.1094 0.99219-2.2422 1.332-3.3711 0.91797-3.0625 1.0586-6.1758 0.44141-9.1562-0.42188-2.0391-1.1992-4.0039-2.3359-5.8438zm-7.6406 14.289c-0.125 0.25-0.27734 0.48438-0.43359 0.71094-0.64844 0.97266-1.5391 1.7891-2.5898 2.3047-1.582 0.78906-3.1875 1.1914-4.7617 1.1914-2.8125 0-5.4023-1.3008-7.0898-3.4961-0.19141-0.24219-0.375-0.49219-0.54297-0.75781-0.92188-1.4922-2.1289-4.4727-0.61328-8.3984 0.13281-0.35156 0.28125-0.70703 0.46484-1.0742 0.64844-1.3008 1.7148-2.375 3.0117-3.0156 1.582-0.78906 3.1875-1.1875 4.7617-1.1875 3.1289 0 5.9844 1.5898 7.6328 4.2539 0.17578 0.28125 0.36719 0.63281 0.54297 1.0234 0.83203 1.8281 1.4297 4.7773-0.40234 8.4453z"/>
  <path d="m483.54 255.04c-0.023437-25.305-5.2422-49.949-15.516-73.238-10.328-23.422-25.105-44-43.922-61.145-0.22656-0.21094-0.47656-0.38281-0.72656-0.54297-0.23438-0.14063-0.47266-0.25-0.72266-0.33984-0.082032-0.035156-0.17578-0.058594-0.25781-0.082032-0.17578-0.058593-0.35938-0.10156-0.53516-0.13672-0.082031-0.015625-0.17188-0.03125-0.25781-0.046875-0.25781-0.035157-0.52344-0.050781-0.78906-0.042969-0.30078 0.015625-0.58984 0.058594-0.88281 0.125-0.089844 0.023438-0.18359 0.066406-0.27344 0.10156-0.19141 0.054688-0.38281 0.11328-0.56641 0.19922-0.10938 0.050781-0.19922 0.125-0.30859 0.17188-0.15625 0.09375-0.31641 0.16797-0.46484 0.27734-0.24219 0.17188-0.46875 0.38281-0.67578 0.60547l-13.301 14.602-106.82 116.53v-1.5977c0-11.062-9-20.062-20.062-20.062h-42.207c-15.332 0-27.801 12.469-27.801 27.801v3.1953c0 1.5742 0.80469 3.0469 2.1445 3.8789 10.824 6.7773 18.387 17.973 18.387 27.219 0 13.652-13.5 26.988-17.66 30.773l-60.406-0.58984c-2.7617-18.52-4.1094-37.082-4.1094-56.609 0-27.434 2.7695-54.68 8.0039-78.773 0.070312-0.31641 0.10156-0.65234 0.10156-0.97656v-7.457c0-0.43359-0.066406-0.84766-0.17578-1.2422l27.762 7.5781c1.1719 0.31641 2.4219 0.15625 3.4766-0.44141 1.0586-0.60156 1.8242-1.6016 2.1484-2.7734l4.0703-14.934c0.31641-1.1719 0.16016-2.4219-0.44141-3.4766-0.59766-1.0586-1.5977-1.8242-2.7695-2.1484l-51.09-13.934c-0.80859-0.21875-1.625-0.20703-2.3828 0-5.6172-1.457-11.562-1.6641-16.457-1.6992h-0.125-0.14062-2.0703-0.88281c-1.0664 0-2.0391 0.36719-2.8164 0.97266-7.3164 2.4727-12.602 9.3984-12.602 17.539v16.93c0 8.1406 5.2852 15.066 12.602 17.539 0.77734 0.60938 1.7578 0.97266 2.8164 0.97266h0.89844 2.0234 0.17188 0.10938c0.73438 0 1.5078-0.015625 2.2969-0.03125l-16.121 39.195c-19.734 4.9922-37.258 15.73-50.801 31.164-13.801 15.723-22.215 34.918-24.395 55.609-0.35938 0.64844-0.56641 1.4062-0.56641 2.1992v23.223c0 2.5312 2.0469 4.5781 4.5781 4.5781h27.602c0.90625 7.4727 3.6523 14.625 8.1875 20.875 8.418 11.578 21.984 18.484 36.277 18.484 4.9336 0 9.9219-0.79688 14.805-2.3867 13.078-4.2383 23.406-14.566 27.645-27.645 1-3.0938 1.6641-6.2148 2.0312-9.3281h73.332c0.90625 7.4727 3.6523 14.625 8.1875 20.875 8.418 11.578 21.984 18.484 36.277 18.484 4.9336 0 9.9102-0.79688 14.805-2.3867 13.078-4.2383 23.406-14.566 27.645-27.645 1-3.0938 1.6641-6.2148 2.0312-9.3281h37.965c2.5312 0 4.5781-2.0469 4.5781-4.5781v-23.223c0-2.5312-2.0469-4.5781-4.5781-4.5781h-11.762c-1.4062-10.812-4.5352-21.195-9.1914-30.797 0.019531 0 0.035156-0.019532 0.050781-0.019532l67.562-31.164c0.625-0.28125 1.1406-0.70703 1.5586-1.1953l47.953-0.085938c0.42969 0.13281 0.87891 0.22656 1.3477 0.22656l31.629 0.039063c2.4453 0 4.4453-1.9297 4.5703-4.3516 0.015625-0.16797 0.023438-0.32422 0.023438-0.49219 0-0.14062-0.007813-0.28125-0.023438-0.41406zm-263.87-7.0664c0.24219-0.36719 0.5-0.73047 0.77344-1.082 0.050782-0.058593 0.10156-0.125 0.14063-0.18359 0.28516-0.35547 0.57422-0.70703 0.88281-1.0391l0.050781-0.050781c0.30078-0.33203 0.61719-0.64062 0.94141-0.94922 0.039062-0.039063 0.089843-0.089844 0.13281-0.13281 0.32422-0.30078 0.66406-0.58984 1.0156-0.86328 0.066406-0.050781 0.125-0.10156 0.19141-0.15234 0.35547-0.27344 0.71484-0.53906 1.0898-0.78906 0.042969-0.027344 0.074219-0.050781 0.11719-0.074219 0.36719-0.24219 0.73828-0.46875 1.1211-0.68359 0.042969-0.027343 0.085938-0.050781 0.13281-0.074218 0.39453-0.21875 0.80078-0.41797 1.2109-0.60938 0.074219-0.03125 0.14844-0.066407 0.23047-0.10938 0.41016-0.18359 0.82422-0.34766 1.25-0.49609 0.066406-0.027344 0.125-0.042969 0.19141-0.070312 0.42188-0.14844 0.84766-0.28125 1.2891-0.39844 0.035156 0 0.058594-0.015625 0.09375-0.023438 0.44922-0.11719 0.90625-0.21875 1.3633-0.30078 0.082031-0.015625 0.17578-0.03125 0.25781-0.050781 0.44922-0.074219 0.90625-0.13281 1.3633-0.17188 0.085937 0 0.16797-0.019531 0.25-0.019531 0.48438-0.039063 0.96875-0.066406 1.4648-0.066406h42.211c0.35938 0 0.71484 0.027343 1.0742 0.058593 0.94141 0.09375 1.8398 0.30859 2.6875 0.625 0.5 0.18359 0.99219 0.39844 1.457 0.65625 0.51562 0.28516 1.0078 0.60938 1.4727 0.97656 0.085938 0.066406 0.16797 0.11328 0.24219 0.18359 0.125 0.097656 0.23438 0.21484 0.35156 0.3125 0.14062 0.125 0.28906 0.25 0.42188 0.38281 0.13281 0.13672 0.25781 0.28516 0.38281 0.42578 0.10938 0.11719 0.21875 0.23438 0.31641 0.35156 0.066406 0.074218 0.11719 0.16406 0.18359 0.24219 0.35938 0.46484 0.68359 0.95703 0.96484 1.4727 0.25781 0.46484 0.47656 0.95703 0.66016 1.457 0.31641 0.84766 0.53125 1.7539 0.62109 2.6875 0.035156 0.34766 0.058593 0.70703 0.058593 1.0742v2.1055h-70.867c0.035156-0.09375 0.050781-0.19141 0.082031-0.28516 0.027344-0.082031 0.058594-0.17188 0.085937-0.25781 0.14844-0.41406 0.30859-0.83203 0.48047-1.2383 0.035157-0.074218 0.066407-0.14062 0.10156-0.21875 0.38281-0.84766 0.82422-1.6562 1.3242-2.4297 0.039063-0.066407 0.082032-0.125 0.125-0.19141zm254.66 3.1719-10.613-0.015626h-4.5859l-7.2891-0.015624c0-0.085938 0-0.16797-0.007812-0.24219v-0.027344c-0.59375-19.316-4.8711-38.145-12.762-56.016-7.918-17.965-18.996-33.887-32.945-47.387l15.141-16.613c16.281 15.629 29.176 34.094 38.371 54.934 9.1562 20.77 14.086 42.652 14.676 65.117 0 0.089844 0 0.17578 0.007813 0.26563zm-51.047-0.21484-112.5 0.20703 76.02-82.922c1.7656 4.5547 3.7305 9.1172 6.7617 12.895 3.3711 4.2031 8.1289 7.3008 12.734 10.305 5.5859 3.6445 10.863 7.082 12.984 11.887 2.1133 4.8008 1.0977 11.02 0.015626 17.605-0.89063 5.418-1.8047 11.027-0.98047 16.348 0.73828 4.7852 2.7891 9.3047 4.9609 13.684zm10.23-0.027344c-0.33594-0.66406-0.66797-1.332-0.99219-1.9805-2.3203-4.6016-4.5117-8.957-5.1523-13.086-0.59766-3.8789 0.15625-8.5312 0.96484-13.457 0.30078-1.8242 0.60156-3.6641 0.83984-5.5039 0.75781-5.7578 0.91797-11.551-1.4219-17.027-0.03125-0.085937-0.058594-0.16016-0.10156-0.24219-0.03125-0.085937-0.074219-0.16016-0.10547-0.23438-2.4648-5.418-6.8516-9.207-11.621-12.535-1.5234-1.0664-3.0781-2.082-4.6289-3.0859-4.1875-2.7305-8.1328-5.3047-10.586-8.3672-2.6211-3.2617-4.3555-7.8086-6.1836-12.625-0.25781-0.68359-0.52734-1.3828-0.80078-2.0742l0.85938-0.93359 3.0859-3.3711 0.48438-0.53125c0.19141-0.14844 0.375-0.31641 0.53906-0.5l1.1328-1.25c13.066 12.672 23.449 27.594 30.871 44.434 7.3672 16.707 11.379 34.277 11.973 52.312h-1.875c-0.24219 0-0.47266 0.019532-0.70703 0.058594zm-293.18 104.8c-0.31641 2.1719-0.82422 4.3516-1.5234 6.5078-3.332 10.289-11.461 18.422-21.75 21.75-3.9727 1.2891-8.0078 1.9375-11.988 1.9375-11.379 0-22.164-5.5-28.875-14.715-3.3789-4.6445-5.5156-9.9297-6.3555-15.488-0.46094-2.9961-0.53516-6.0703-0.23438-9.1562 0.27344-2.7656 0.83984-5.543 1.7305-8.3008 3.3281-10.285 11.461-18.418 21.75-21.75 3.9688-1.2891 8.0078-1.9375 11.984-1.9375 11.379 0 22.168 5.5 28.875 14.715 3.7383 5.1445 5.9531 11.07 6.5859 17.273 0.30859 3.0039 0.25 6.0742-0.19922 9.1562zm-31.781-191.38c0-1.9727 0.63281-3.793 1.6836-5.3086 0.80469-1.1641 1.8555-2.1484 3.0938-2.8477v33.246c-1.2383-0.69922-2.2891-1.6836-3.0938-2.8477-1.0508-1.5156-1.6836-3.3281-1.6836-5.3125zm72.582 4.7617-1.6641 6.1016-29.215-7.9648c-1.4062-0.38281-2.9062-0.074219-4.0469 0.82422-1.1406 0.89844-1.7812 2.2891-1.7305 3.7461l0.015626 0.34766c0.007812 0.21875 0.015624 0.42578 0.015624 0.64844 0 0.52734-0.015624 1.0352-0.039062 1.5312-0.21094 3.9141-1.2266 6.8945-2.8711 9.1562-1.6484 2.2578-3.9375 3.8047-6.6953 4.8711-3.0703 1.1836-6.7227 1.7656-10.734 2.0391-0.55078 0.042969-1.1172 0.066407-1.6836 0.10156v-35.395c3.8711 0.17578 7.9844 0.63281 11.547 1.8398 0.89062 0.30078 1.8477 0.31641 2.7383 0.058594l44.371 12.102zm-143.56 160.62c0.19141-0.44141 0.30859-0.90625 0.35156-1.4062 3.4688-39.605 31.855-72.164 70.617-81.016 1.4492-0.33203 2.6445-1.3477 3.2109-2.7188l18.812-45.723c4.3203-0.72656 8.6836-2.0312 12.438-4.3633-4.1875 22.383-6.3867 46.938-6.3867 71.625 0 19.637 1.3516 38.324 4.0781 56.961-8.457-11.07-21.691-17.664-35.633-17.664-4.9336 0-9.9141 0.80078-14.805 2.3828-13.078 4.2344-23.41 14.566-27.645 27.641-1.1914 3.6875-1.9219 7.418-2.2227 11.121h-22.832v-16.84zm307.63 16.84h-33.203c-0.39062-4.8633-1.5703-9.5977-3.5039-14.066h36.699v14.066zm-42.598 9.1562c-0.31641 2.1719-0.82422 4.3516-1.5234 6.5078-3.332 10.289-11.461 18.422-21.75 21.75-3.9727 1.2891-8.0078 1.9375-11.988 1.9375-11.375 0-22.164-5.5-28.871-14.715-3.3828-4.6445-5.5195-9.9297-6.3633-15.488-0.45703-2.9961-0.53125-6.0703-0.23047-9.1562 0.27344-2.7656 0.83984-5.543 1.7305-8.3008 3.3281-10.285 11.461-18.418 21.75-21.75 3.9688-1.2891 8.0078-1.9375 11.984-1.9375 8.8984 0 17.422 3.3711 23.934 9.2461 1.3906 1.2578 2.6875 2.6211 3.8789 4.0977 0.35547 0.44922 0.72266 0.89844 1.0625 1.3711 0.75781 1.043 1.4336 2.1133 2.0664 3.207 2.4961 4.3359 4.0117 9.1133 4.5195 14.066 0.15625 1.5117 0.21484 3.0352 0.18359 4.5781-0.035157 1.5234-0.16016 3.0469-0.38281 4.5781zm0.58203-32.379c-8.4492-11.23-21.785-17.922-35.844-17.922-4.9336 0-9.9102 0.80078-14.797 2.3828-13.078 4.2344-23.406 14.566-27.645 27.641-1.1914 3.6875-1.9219 7.418-2.2227 11.121h-72.957c-0.41406-5.0938-1.6875-10.055-3.7852-14.707l66.016 0.64844c1.0703 0 2.1211-0.35938 2.9531-1.0391 0.90625-0.75 22.199-18.516 22.199-38.906 0-11.945-7.4141-22.523-15.641-29.715h71.059c19.805 14.605 32.789 36.324 36.25 60.512h-25.602zm21.867-39.129c-0.20312 0.089844-0.38281 0.19922-0.56641 0.31641-5.0703-8.4062-11.371-16.074-18.777-22.75h67.969z"/>
  <path d="m396.82 217.26c-8.3398 0-15.125 6.7852-15.125 15.125 0 8.3398 6.7852 15.125 15.125 15.125s15.121-6.7852 15.121-15.125c0-8.3398-6.7812-15.125-15.121-15.125zm0 21.086c-3.2891 0-5.9688-2.6719-5.9688-5.9688s2.6719-5.9688 5.9688-5.9688 5.9688 2.6719 5.9688 5.9688-2.6719 5.9688-5.9688 5.9688z"/>
  <path d="m397.16 201.02c0-8.3398-6.7812-15.125-15.121-15.125-8.3438 0-15.125 6.7852-15.125 15.125 0 8.3398 6.7812 15.125 15.125 15.125 8.3398 0 15.121-6.7852 15.121-15.125zm-21.082 0c0-3.2891 2.6719-5.9688 5.9688-5.9688 3.293 0 5.9648 2.6719 5.9648 5.9688 0 3.2969-2.6719 5.9688-5.9648 5.9688-3.2969 0-5.9688-2.6719-5.9688-5.9688z"/>
  <path d="m352.79 217.53c-8.3438 0-15.125 6.7812-15.125 15.121s6.7812 15.125 15.125 15.125c8.3398 0 15.121-6.7852 15.121-15.125s-6.7812-15.121-15.121-15.121zm0 21.082c-3.2891 0-5.9688-2.6719-5.9688-5.9688s2.6719-5.9688 5.9688-5.9688c3.293 0 5.9648 2.6719 5.9648 5.9688s-2.6719 5.9688-5.9648 5.9688z"/>
 </g>
</svg>
