<?xml version="1.0" encoding="UTF-8"?>
<svg width="512pt" height="512pt" version="1.1" viewBox="0 0 512 512" xmlns="http://www.w3.org/2000/svg">
 <g>
  <path d="m101.69 91.758c9.8164 0 17.82-7.9961 17.82-17.82s-8.0039-17.82-17.82-17.82c-9.832 0-17.836 7.9961-17.836 17.82s8.0039 17.82 17.836 17.82z"/>
  <path d="m107.48 134.34v-31.574c-1.875 0.375-3.8086 0.58594-5.7891 0.58594s-3.9141-0.21094-5.7891-0.58594v31.574c0 3.2031 2.5859 5.7969 5.7891 5.7969s5.7891-2.5938 5.7891-5.7969z"/>
  <path d="m241.57 119.86c9.8164 0 17.82-7.9961 17.82-17.82 0-9.8242-8.0039-17.82-17.82-17.82-9.832 0-17.836 7.9961-17.836 17.82 0 9.8242 8.0078 17.82 17.836 17.82z"/>
  <path d="m102.75 204.93 38.145 14.336 3.3164 1.2461 6.8398-18.242-41.445-15.578z"/>
  <path d="m381.51 403.24c0 8.7734 7.1484 15.902 15.91 15.902 8.7656 0 15.91-7.1328 15.91-15.902 0-1.6289-0.32812-3.2188-0.81641-4.7617h-29.969c-0.49609 1.543-1.0352 3.0781-1.0352 4.7617z"/>
  <path d="m462.01 297.78h12.062v-20.293h-21.535l4.6367 11.246c0.007813 0.007812 1.6758 3.6094 4.8359 9.0469z"/>
  <path d="m424.3 398.48c0.27734 1.5781 0.60547 3.1523 0.60547 4.7617 0 15.16-12.32 27.496-27.488 27.496s-27.488-12.336-27.488-27.496c0-1.625 0.23438-3.1992 0.50781-4.7617h-26.172c-0.097656 1.3125-0.32031 2.5938-0.32031 3.9297 0 29.488 23.996 53.477 53.477 53.477 29.477 0 53.477-23.988 53.477-53.477 0-1.3398-0.22656-2.6172-0.32422-3.9297z"/>
  <path d="m435.71 95.156h-138.09v131.22h138.09zm-23.723 121.94c-1.0664 0.86328-2.3594 1.3086-3.6719 1.3086-0.77734 0-1.5703-0.16016-2.3125-0.48438l-92.234-40.078c-2.2812-0.98828-3.6719-3.3242-3.4609-5.7969 1.6016-19.055 10.543-36.352 25.16-48.688 14.617-12.336 33.293-18.273 52.215-16.621 2.5547 0.21094 4.6562 2.0781 5.1914 4.5781l21.117 100.1c0.4375 2.1133-0.33594 4.3125-2.0039 5.6797z"/>
  <path d="m383.35 122.34-0.90234-4.2734c-14.648-0.21875-28.348 4.7383-39.504 14.148-11.191 9.4531-18.418 22.363-20.602 36.715l4.3438 1.8867c9.3516-35.602 44.688-45.969 56.664-48.477z"/>
  <path d="m85.754 151.56-22.418-12.371-5.5039 11.219 22.281 11.559z"/>
  <path d="m337.52 175.52 62.816 27.293-14.602-69.188c-9.9766 1.9297-41.094 10.508-48.215 41.895zm24.496-8.0547-0.53516 1.9258c-0.71094 2.5625-3.0391 4.2461-5.5781 4.2461-0.51563 0-1.0352-0.066406-1.5508-0.21094-3.0898-0.85547-4.8828-4.0508-4.0273-7.1406l0.53516-1.9258c0.85547-3.082 4.0586-4.8828 7.1328-4.0352 3.0859 0.85938 4.8789 4.0508 4.0234 7.1406zm12.969 8.168c-3.1367 0-5.6797-2.543-5.6797-5.6797s2.543-5.6797 5.6797-5.6797 5.6758 2.543 5.6758 5.6797-2.5391 5.6797-5.6758 5.6797zm4.8516-21c-0.98828 0.67188-2.1172 0.99609-3.2344 0.99609-1.8594 0-3.6875-0.89844-4.8008-2.5547-1.793-2.6602-1.082-6.2578 1.5703-8.043 2.668-1.7695 6.8086-1.457 8.6016 1.1875 1.7773 2.6523 1.6328 5.8789-1.0195 7.6641zm13.211 27.594c1.0039 3.0391-0.082031 6.1289-3.1211 7.1328l-1.1328 0.37109c-0.59766 0.19531-1.2109 0.29297-1.8125 0.29297-2.4414 0-4.707-1.543-5.4961-3.9844-1.0039-3.0391 0.64844-6.3164 3.6875-7.3164 3.0898-1.0156 6.8867 0.46484 7.875 3.5039z"/>
  <path d="m231.81 248.45c-0.53516 2.9336 0.21094 4.2188 0.80859 4.9336 2.3125 2.6914 8.6836 3.5078 11.094 3.3633l193.01 0.007812c2.9414 0 5.0273-1.2852 6.0312-3.2734 0.46875-0.94531 0.69531-1.9805 0.62891-2.9922-0.25-4.9023-1.6055-8.9727-3.6055-12.516l-147.94-0.003906c-0.042969 0-0.074219-0.023438-0.11719-0.023438-0.050782-0.003906-0.089844 0.019532-0.14062 0.015626l-52.504-2.3125c0.45313 0.11328-5.2734 2.0547-7.2617 12.801z"/>
  <path d="m494.41 366.64c-7.3672-10.039-50.34-64.48-119.4-70.336-17.367-1.4648-31.562 2.9844-42.301 13.227-22.449 21.426-24.949 62.043-25.059 77.352h190.95c0.039063-6.5117-1.6406-13.309-4.1914-20.242zm-120.32-45.301c-1.1797 0.21094-28.914 5.6758-35.543 44.484-0.48438 2.8203-2.9258 4.8203-5.707 4.8203-0.32422 0-0.64844-0.023437-0.96875-0.082031-3.1523-0.54297-5.2891-3.5312-4.7383-6.6953 8.0547-47.184 43.48-53.691 44.984-53.953 3.4297-0.56641 6.1602 1.6094 6.6797 4.7539 0.53125 3.1484-1.5703 6.1211-4.707 6.6719zm62.062 51.648h-26.406c-3.2031 0-5.7891-2.5938-5.7891-5.7969s2.5859-5.7969 5.7891-5.7969h26.406c3.2031 0 5.7891 2.5938 5.7891 5.7969 0 3.1992-2.5859 5.7969-5.7891 5.7969zm0-17.781h-26.406c-3.2031 0-5.7891-2.5938-5.7891-5.7969s2.5859-5.7969 5.7891-5.7969h26.406c3.2031 0 5.7891 2.5938 5.7891 5.7969s-2.5859 5.7969-5.7891 5.7969zm0-17.777h-26.406c-3.2031 0-5.7891-2.5938-5.7891-5.7969s2.5859-5.7969 5.7891-5.7969h26.406c3.2031 0 5.7891 2.5938 5.7891 5.7969 0 3.1992-2.5859 5.7969-5.7891 5.7969z"/>
  <path d="m375.98 284.76c35.23 2.9844 63.801 17.316 85.066 32.832-9.5742-13.25-14.277-23.73-14.531-24.312l-10.27-24.934-192.38-0.007812c-0.11328 0-0.30859 0.007812-0.58203 0.007812-0.29297 0-0.97266-0.058594-1.4297-0.078125 1.2539 5.4844 4.0859 11.727 10.5 17.543 7.6484 6.9219 13.535 15.355 17.012 24.367 5.8203 14.988 8.1016 35.648 6.1445 55.246-0.30859 2.9609-2.7969 5.2148-5.7734 5.2148h-91.055c-2.4727 0-4.6875-1.5781-5.4805-3.9219-0.11328-0.30078-3.0547-8.4023-19.762-39.512-14.402-26.848-20.945-69.137-20.25-98.449l-21.418-8.0469-25.422 68.746c-0.58203 1.6016-1.8594 2.8555-3.4609 3.4375-0.67969 0.25781-14.652 5.8281-22.602 22.527 12.77-3.5938 27.957-4.7695 46.336-1.5391 2.1172 0.42188 49.465 10.285 62.578 59.984 0.082031 0.33203 1.5039 5.9922 2.0547 13.016l124.81 0.003906c0.14453-16.676 3.0234-61.297 28.633-85.734 13.242-12.637 30.527-18.227 51.277-16.391z"/>
  <path d="m82.023 390.63c-8.7656 0-15.91 7.1328-15.91 15.902 0 8.7734 7.1484 15.902 15.91 15.902 8.7812 0 15.926-7.1328 15.926-15.902 0.003906-8.7695-7.1445-15.902-15.926-15.902z"/>
  <path d="m104.5 325.27c-65.504-11.504-86.527 36.691-91.102 50.387 3.7852-1.125 9.4922-3.2188 17.609-7.1562 12.242-5.9414 25.871-11.434 42.059-11.434 15.621 0 33.633 5.1172 55.109 19.883 8.2305 5.6523 18.789 8.918 31.434 9.7266-0.51562-5.4883-1.6016-9.8477-1.6172-9.9141-11.223-42.492-51.777-51.145-53.492-51.492z"/>
  <path d="m121.61 386.51c-38.301-26.332-63.047-18.406-85.059-7.8008-3.7031 7.3633-5.832 15.527-5.832 23.859 0 29.398 23.914 53.312 53.312 53.312s53.328-23.914 53.328-53.312c0-3.0117-0.49219-5.9609-0.99219-8.9023-5.3438-1.8789-10.367-4.1484-14.758-7.1562zm-39.586 47.523c-15.168 0-27.488-12.336-27.488-27.496 0-15.16 12.32-27.496 27.488-27.496 15.168 0 27.504 12.336 27.504 27.496 0.003906 15.156-12.336 27.496-27.504 27.496z"/>
  <path d="m223.42 181.71-34.422-8.7812-4.5352 33.016 31.031 7.6133c0.92187 0.22656 1.8438 0.33203 2.7656 0.33203 2.2148 0 4.3984-0.62891 6.2578-1.8359 2.6523-1.7148 4.4961-4.4805 4.9961-7.3008l2.2969-9.8711c1.0664-5.8477-2.6016-11.629-8.3906-13.172z"/>
  <path d="m190.75 160.19-0.09375 0.6875-1.5195 11.074 44.281-3.7266c3.1836-0.26562 5.5625-3.0742 5.2891-6.2578s-3.1523-5.6836-6.2578-5.2891l-41.043 3.4531 33.77-33.699c-3.2305-2.1797-5.9883-4.9922-8.1367-8.2461l-14.938 14.906-21.809 21.762 10.695 3.625z"/>
  <path d="m160.52 210.04 9.6602 1.5469 2.1523-2.5 5.8555-42.699-73.734-24.992-20.266 37.305 0.71094 8.8711 10.191 4.7812 4.0547-10.805c2.0391-5.3828 8.0703-8.1016 13.438-6.1133l43.629 16.398c2.6016 0.96875 4.6875 2.9023 5.8359 5.4492 1.1641 2.5391 1.2461 5.375 0.25781 7.9961z"/>
 </g>
</svg>
