<?xml version="1.0" encoding="UTF-8"?>
<svg width="512pt" height="512pt" version="1.1" viewBox="0 0 512 512" xmlns="http://www.w3.org/2000/svg">
 <path d="m412.34 368.09 0.17188 11.367-20.746 0.33203c-0.64844-3.1992-0.85156-9.1211 0.16406-12.125 3.3438-0.51172 6.9297-0.23047 10.332-0.23047 3.3203 0 8.1914-0.46875 10.078 0.65625zm29.379 104.29c-0.64844 0.29688-1.3984 0.45312-2.2852 0.45312-8.5586 0-16.461-0.058593-24.414-0.12109l-3.8828-0.027344c-3.6367 0.050781-6.7578 0.058594-9.4453-0.058594-3.7031-0.015625-7.5938-0.027344-11.801-0.027344-1.9609 0-4.8633-0.43359-7.2109-1.5977-1.7578-0.87109-3.207-2.1406-3.7734-3.9414-1.2969-4.1562-2.0039-8.0898-2.0039-11.879 0-2.8086 0.38281-5.5391 1.2031-8.2109-8.6797 0.085938-17.656 0.29688-26.07-0.042969-9.1055-0.35938-15.555-8.0312-12.246-17.852-13.672-1.6289-142.14-1.2617-158.51-1.2617 0.22266 5.8555-3.4492 15.207-9.1055 18.039-7.875 3.9414-26.094 0.55469-36.266 1.2031 4.7031 6.8516-0.38281 24.617-12.707 25.285-13.27 0.71875-28.688 0.015625-42.188 0.015625-17.52 0-24.262 3.0117-30.516-11.656-3.1133-7.2969-7.6289-28.809-2.3555-35.711-1.2539-1.4688-2.6641-2.2188-4.3281-3.7734-9.875-9.2422-13.609-25.141-16.77-38.102-8.6016-35.301-8.7461-75.297 2.832-109.81 2.6211-7.8008 5.7422-15.23 9.4648-21.98 5.5469-10.07 4.9844-11.367 18.246-12.707 2.1523-4.8828 1.4336-5.0859 4.3867-9.5234 1.3828-2.0742 4.4453-6.0078 4.9336-8.1484-25.695-0.43359-31.984-21.922-23.16-35.488 10.324-15.879 28.793-9.6016 54.691-10.898 1.707-3.7461 28.484-43.18 31.66-47.992 8.6875-13.168 10.648-10.445 29.219-10.445 13.133 0 27.461 0.19531 40.766 0.19531l-0.1875-22.211c-14.848 0-26.02 0.35938-26.051-15.957-0.085937-39.945-2.7578-35.738 45.047-35.738l99.719-0.007812c7.7812-0.027344 10.863 0.085937 14.781 4.9062 3.8555 4.7461 2.8516 10.848 2.8516 17.449 0 4.6172 0.52734 15.957-0.57031 19.738-3.8984 13.363-17.168 6.9023-30.141 9.3594l0.09375 22.051c9.1914 1.4336 30.617 0.23047 41.105 0.23047 19.992 0 23.195-2.8398 31.387 9.6172 5.4375 8.2617 11.152 16.613 16.605 24.867l12.254 18.543c1.5859 2.4062 2.6875 5.1133 4.6758 5.5117 10.93 0 21.898-0.09375 32.82-0.007812 23.809 0.19531 28.988 25.301 19.898 36.531-5.1797 6.4102-11.383 9.5742-22.535 9.7617 0.48828 2.0664 3.7383 6.3555 5.1953 8.5352 2.9961 4.4648 2.0742 4.0859 4.1055 9.1133 13.117 1.5 12.723 2.5938 18.277 12.688 20.438 37.137 22.605 88.609 12.781 129.67-1.9453 8.1406-4.2227 16.316-6.9805 23.781-3.6016 9.7461-6.8594 12.406-12.852 18.082 2.6211 12.32 3.7188 22.758-0.41797 34.895-4.9336 14.5-10.555 14.812-20.207 14.652zm-341.5-109.28 0.97266-0.47656c2.0898-0.44531-0.87891-0.015625 1.1875-0.22266l18.629 0.35156c0.62109 3.1914 0.89453 9.2773-0.23828 12.176l-18.371 0.20312c-2.2109-0.25781-0.86328 0-1.9609-0.68359l-0.22266-11.348zm103.98-1.8945-0.94531-1.8945 4.8047-0.85156c6.5352 0.57031 17.699-0.69141 24.781-0.97266 25.336-1.0078 48.641-0.87109 74.062 0.75781 0.32422 3.9102-3.0039 9.0703-4.8633 10.531-10.121 7.9023-82.695 6.2461-90.582 1.9297-3.0117-1.6484-6.4258-5-7.2539-9.4961zm7.4258-60.375 85.742-0.12109-9.7969 24.738-65.852 0.085937c-1.8242-3.0039-9.1719-20.941-10.094-24.703zm234.69-16.488c20.258 54.059-76.176 61.117-92.031 49.895-6.5977-4.668-8.9336-19.652-3.8398-28.809 3.625-6.5195 17.91-9.6836 26.887-11.895 13.398-3.3008 55.969-11.043 68.984-9.1992zm-388.01-2.082c13.891-1.75 54.461 5.7188 68.523 9.0898 8.9258 2.1406 23.492 5.4688 27.172 11.621 5.6758 9.5078 2.6875 24.695-4.0703 29.473-10.77 7.6211-71.117 6.9883-88.961-19.43-5.9492-8.8047-6.5781-19.949-2.6719-30.762zm93.637-140.4h204.8c2.3984 0 12.621 17.082 14.602 20.07 4.1289 6.2383 40.789 60.398 42.316 64.332l-4.043 0.042969c-103.7-0.30859-208.36 0.61328-311.88 0.007812l-2.6797-0.050781c1.375-3.4727 4.6328-7.5586 6.793-10.82l35.25-53.078c1.9297-2.918 12.5-20.496 14.848-20.496zm65.27-48.418c17.945 0.015626 55.645-0.63281 71.125 0.24609l-0.10938 22.441-70.801 1.1953-0.21484-23.887z" fill="#ff001b" fill-rule="evenodd"/>
</svg>
